<?xml version="1.0" encoding="utf-8"?>
<!-- Generator: Adobe Illustrator 15.1.0, SVG Export Plug-In . SVG Version: 6.00 Build 0)  -->
<!DOCTYPE svg PUBLIC "-//W3C//DTD SVG 1.1//EN" "http://www.w3.org/Graphics/SVG/1.1/DTD/svg11.dtd">
<svg version="1.1" id="Layer_1" xmlns="http://www.w3.org/2000/svg" xmlns:xlink="http://www.w3.org/1999/xlink" x="0px" y="0px"
	 width="25px" height="26px" viewBox="0 0 25 26" enable-background="new 0 0 25 26" xml:space="preserve">
<g>
	<g>
		<path fill="#777777" d="M21.965,4.984H20.93v0.999c0,1.379-1.117,2.496-2.496,2.496s-2.496-1.117-2.496-2.496V4.984H8.924v0.999
			c0,1.379-1.117,2.496-2.496,2.496c-1.379,0-2.497-1.117-2.497-2.496V4.984H3c-0.552,0-1,0.448-1,1V23c0,0.553,0.448,1,1,1h18.965
			c0.553,0,1-0.447,1-1V5.984C22.965,5.432,22.518,4.984,21.965,4.984z M20.99,20.922c0,0.553-0.447,1-1,1H4.975
			c-0.553,0-1-0.447-1-1v-9.031c0-0.553,0.447-1,1-1H19.99c0.553,0,1,0.447,1,1V20.922z M6.428,7.081
			c0.826,0,1.498-0.671,1.498-1.498V4.385c0-0.827-0.672-1.498-1.498-1.498c-0.828,0-1.499,0.671-1.499,1.498v1.198
			C4.93,6.41,5.601,7.081,6.428,7.081z M18.434,7.081c0.828,0,1.498-0.671,1.498-1.498V4.385c0-0.827-0.67-1.498-1.498-1.498
			c-0.826,0-1.498,0.671-1.498,1.498v1.198C16.936,6.41,17.607,7.081,18.434,7.081z"/>
	</g>
</g>
<g>
	<path fill="#777777" d="M12.165,19.878H7.462v-0.903l2.229-2.39c0.322-0.368,0.55-0.68,0.686-0.934
		c0.136-0.254,0.204-0.49,0.204-0.708c0-0.29-0.078-0.527-0.234-0.712c-0.156-0.185-0.377-0.277-0.664-0.277
		c-0.319,0-0.561,0.108-0.727,0.325c-0.166,0.216-0.249,0.503-0.249,0.862H7.362l-0.009-0.027c-0.016-0.622,0.188-1.147,0.613-1.578
		c0.424-0.431,0.996-0.646,1.715-0.646c0.709,0,1.267,0.184,1.672,0.553c0.405,0.37,0.608,0.861,0.608,1.477
		c0,0.416-0.114,0.799-0.343,1.151c-0.229,0.352-0.606,0.813-1.133,1.384L9.26,18.79l0.01,0.023h2.896V19.878z"/>
	<path fill="#777777" d="M14.416,15.848h0.776c0.328,0,0.571-0.086,0.728-0.258c0.158-0.172,0.238-0.411,0.238-0.717
		c0-0.278-0.08-0.5-0.238-0.668c-0.156-0.166-0.386-0.25-0.685-0.25c-0.26,0-0.477,0.076-0.653,0.227
		c-0.177,0.152-0.266,0.351-0.266,0.597h-1.338l-0.009-0.028c-0.019-0.539,0.187-0.984,0.62-1.334
		c0.432-0.35,0.968-0.525,1.607-0.525c0.713,0,1.282,0.17,1.706,0.511c0.425,0.341,0.637,0.826,0.637,1.458
		c0,0.299-0.095,0.584-0.284,0.853c-0.189,0.271-0.449,0.48-0.78,0.632c0.381,0.136,0.672,0.345,0.873,0.625
		c0.199,0.281,0.3,0.607,0.3,0.979c0,0.632-0.229,1.128-0.688,1.489c-0.459,0.36-1.047,0.541-1.763,0.541
		c-0.64,0-1.189-0.17-1.648-0.509c-0.459-0.338-0.68-0.817-0.664-1.436l0.009-0.028h1.34c0,0.264,0.094,0.481,0.282,0.652
		c0.19,0.17,0.43,0.256,0.721,0.256c0.317,0,0.57-0.088,0.754-0.265c0.185-0.176,0.276-0.415,0.276-0.717
		c0-0.362-0.09-0.628-0.271-0.795c-0.181-0.169-0.449-0.254-0.802-0.254h-0.776V15.848z"/>
</g>
</svg>
